<?xml version="1.0" encoding="UTF-8"?>
<svg width="15px" height="11px" viewBox="0 0 15 11" version="1.1" xmlns="http://www.w3.org/2000/svg" xmlns:xlink="http://www.w3.org/1999/xlink">
    <!-- Generator: sketchtool 48.1 (47250) - http://www.bohemiancoding.com/sketch -->
    <title>A47ECFBD-1782-4FB6-BB90-30CD49AFBEB2</title>
    <desc>Created with sketchtool.</desc>
    <defs></defs>
    <g id="icons" stroke="none" stroke-width="1" fill="none" fill-rule="evenodd" transform="translate(-100.000000, -492.000000)">
        <g id="Page-1-Copy-17" transform="translate(100.000000, 490.000000)">
            <rect id="Background" x="0" y="0" width="15" height="15"></rect>
            <g id="Group" transform="translate(0.000000, 2.700000)" fill="#475677">
                <path d="M7.30246055,0 L7.4000001,2.23122632 L7.15289992,2.23122632 C7.10521368,1.838304 7.04018797,1.55764941 6.95782083,1.38925413 C6.82343234,1.11795062 6.64461163,0.91798422 6.42135333,0.789348936 C6.19809504,0.660713651 5.90439557,0.596396974 5.54024612,0.596396974 L4.29824259,0.596396974 L4.29824259,7.86542362 C4.29824259,8.45012945 4.35676573,8.81498043 4.47381377,8.95998747 C4.63854804,9.15644864 4.89214832,9.25467774 5.23462221,9.25467774 L5.54024612,9.25467774 L5.54024612,9.51428584 L1.80123025,9.51428584 L1.80123025,9.25467774 L2.11335679,9.25467774 C2.48617647,9.25467774 2.75061437,9.13306075 2.90667842,8.88982312 C3.0020509,8.74013843 3.04973642,8.39867534 3.04973642,7.86542362 L3.04973642,0.596396974 L1.9898067,0.596396974 C1.57797101,0.596396974 1.28535531,0.629140009 1.11195081,0.694627063 C0.886524953,0.783502351 0.693615339,0.954233895 0.533216176,1.20682682 C0.372817012,1.45941974 0.277445967,1.80088283 0.247100179,2.23122632 L0,2.23122632 L0.104042181,0 L7.30246055,0 Z" id="T"></path>
                <path d="M14.9024605,0 L15,2.23122632 L14.7528998,2.23122632 C14.7052136,1.838304 14.6401879,1.55764941 14.5578207,1.38925413 C14.4234322,1.11795062 14.2446115,0.91798422 14.0213532,0.789348936 C13.7980949,0.660713651 13.5043955,0.596396974 13.140246,0.596396974 L11.8982425,0.596396974 L11.8982425,7.86542362 C11.8982425,8.45012945 11.9567656,8.81498043 12.0738137,8.95998747 C12.2385479,9.15644864 12.4921482,9.25467774 12.8346221,9.25467774 L13.140246,9.25467774 L13.140246,9.51428584 L9.40123016,9.51428584 L9.40123016,9.25467774 L9.7133567,9.25467774 C10.0861764,9.25467774 10.3506143,9.13306075 10.5066783,8.88982312 C10.6020508,8.74013843 10.6497363,8.39867534 10.6497363,7.86542362 L10.6497363,0.596396974 L9.58980661,0.596396974 C9.17797092,0.596396974 8.88535521,0.629140009 8.71195071,0.694627063 C8.48652486,0.783502351 8.29361524,0.954233895 8.13321608,1.20682682 C7.97281692,1.45941974 7.87744587,1.80088283 7.84710008,2.23122632 L7.5999999,2.23122632 L7.70404209,0 L14.9024605,0 Z" id="T-Copy"></path>
            </g>
        </g>
    </g>
</svg>