<?xml version="1.0" encoding="UTF-8"?>
<svg width="60px" height="14px" viewBox="0 0 60 14" version="1.1" xmlns="http://www.w3.org/2000/svg" xmlns:xlink="http://www.w3.org/1999/xlink">
    <!-- Generator: sketchtool 48.1 (47250) - http://www.bohemiancoding.com/sketch -->
    <title>32306457-D185-49D3-A48D-A1B1AA4DE890</title>
    <desc>Created with sketchtool.</desc>
    <defs></defs>
    <g id="Desktop-full" stroke="none" stroke-width="1" fill="none" fill-rule="evenodd" transform="translate(-932.000000, -18.000000)">
        <g id="LR_logo_eng-Copy-3" transform="translate(932.000000, 18.000000)">
            <g id="LR_logo_RU">
                <g id="LR_logo_167">
                    <path d="M5.19197605,2.522884 C5.14419162,3.671668 5.0902994,4.71744 5.03065868,5.660928 C4.97065868,6.604052 4.89017964,7.453992 4.78922156,8.209292 C4.68754491,8.964956 4.55317365,9.63326 4.38610778,10.213476 C4.21904192,10.794056 4.00419162,11.295648 3.74155689,11.71898 C3.57449102,11.99744 3.38622754,12.227124 3.17748503,12.408396 C2.96874251,12.589304 2.75065868,12.73454 2.52431138,12.84374 C2.29724551,12.952576 2.07341317,13.027924 1.85281437,13.070512 C1.63185629,13.112736 1.42598802,13.133848 1.23520958,13.133848 C0.960718563,13.133848 0.730778443,13.112736 0.545748503,13.070512 C0.360718563,13.027924 0.179281437,12.964588 0,12.879776 L0.268383234,10.73982 C0.33988024,10.764208 0.411377246,10.782044 0.483233533,10.794056 C0.554730539,10.806068 0.626586826,10.812256 0.698083832,10.812256 C0.888862275,10.812256 1.07712575,10.764208 1.26179641,10.666656 C1.44682635,10.57056 1.60491018,10.407124 1.73676647,10.177076 C1.91532934,9.91172 2.07053892,9.521876 2.20203593,9.007544 C2.33317365,8.493576 2.44958084,7.837648 2.5508982,7.039396 C2.65221557,6.241144 2.73305389,5.289284 2.79269461,4.182724 C2.85197605,3.076164 2.89365269,1.785784 2.91808383,0.310492 L10.3120958,0.310492 L10.3120958,13.006812 L7.85928144,13.006812 L7.85928144,2.522884 L5.19197605,2.522884 Z" id="Fill-1" fill="#000000"></path>
                    <polygon id="Fill-2" fill="#000000" points="17.6619162 7.583576 17.6083832 7.583576 16.8384431 8.907444 13.6516168 13.006812 12.1835928 13.006812 12.1835928 3.937752 14.511018 3.937752 14.511018 8.254428 14.4035928 9.488024 14.4750898 9.488024 15.2094611 8.200192 18.4318563 3.937752 19.8998802 3.937752 19.8998802 13.006812 17.5728144 13.006812 17.5728144 8.871044"></polygon>
                    <polygon id="Fill-3" fill="#000000" points="26.2182036 6.023472 26.2182036 13.006448 23.8192814 13.006448 23.8192814 6.023472 21.2594012 6.023472 21.2594012 3.937388 28.7069461 3.937388 28.7069461 6.023472"></polygon>
                    <path d="M33.8867066,2.268812 C33.6481437,2.268812 33.4210778,2.277912 33.2065868,2.296112 C32.9917365,2.313948 32.8185629,2.335424 32.6874251,2.359812 L32.6874251,6.477016 C32.7348503,6.489028 32.8063473,6.501404 32.9022754,6.513052 C32.997485,6.525428 33.099521,6.534528 33.2065868,6.540352 C33.3136527,6.54654 33.4182036,6.549452 33.5198802,6.549452 L33.7433533,6.549452 C34.065988,6.549452 34.3853892,6.519604 34.7011976,6.458816 C35.0177246,6.398756 35.3011976,6.286644 35.551976,6.123572 C35.8027545,5.960136 36.0021557,5.733364 36.1516168,5.442892 C36.3003593,5.152784 36.3754491,4.77204 36.3754491,4.30066 C36.3754491,3.901352 36.3039521,3.571932 36.1605988,3.311672 C36.0176048,3.05214 35.828982,2.843204 35.5965269,2.68632 C35.3640719,2.529072 35.0978443,2.419872 34.8,2.359812 C34.5017964,2.299024 34.1967665,2.268812 33.8867066,2.268812 M31.8908982,0.210392 C32.4930539,0.155792 33.0930539,0.128492 33.6898204,0.128492 C34.3102994,0.128492 34.9343713,0.18018 35.5605988,0.282828 C36.1871856,0.385476 36.7516168,0.591136 37.2524551,0.899444 C37.754012,1.207752 38.162515,1.636908 38.4786826,2.186912 C38.794491,2.737644 38.9529341,3.453996 38.9529341,4.336332 C38.9529341,5.134584 38.8164072,5.809076 38.5411976,6.35908 C38.2667066,6.909448 37.9031138,7.359352 37.4493413,7.710248 C36.9955689,8.061144 36.4796407,8.315216 35.9011976,8.4721 C35.3220359,8.629712 34.7220359,8.707972 34.1022754,8.707972 L33.8148503,8.707972 C33.6833533,8.707972 33.5468263,8.704696 33.4031138,8.698872 C33.2601198,8.692684 33.1196407,8.683948 32.9823952,8.671936 C32.8451497,8.659924 32.7463473,8.647548 32.6870659,8.635536 L32.6870659,13.006812 L30.2346108,13.006812 L30.2346108,0.4368 C30.7354491,0.34034 31.288024,0.264628 31.8908982,0.210392 Z" id="Fill-4" fill="#FF4C00"></path>
                    <path d="M43.6217964,5.5328 C42.8942515,5.554276 42.5543713,5.739916 42.2504192,6.101732 C41.9486228,6.461728 41.7743713,6.953128 41.7158084,7.569744 L45.0585629,7.601412 C45.105988,6.94876 45.0481437,6.44462 44.8052695,6.094088 C44.5620359,5.743192 44.1441916,5.517148 43.6217964,5.5328 M45.4789222,12.961312 C44.8649102,13.161148 44.211018,13.260884 43.5186826,13.260884 C42.0743713,13.260884 41.0184431,12.83464 40.3498204,11.981788 C39.6815569,11.1293 39.3477844,9.959404 39.3477844,8.4721 C39.3477844,6.876324 39.7235928,5.678764 40.4752096,4.880876 C41.2271856,4.082624 42.2834731,3.68368 43.6440719,3.68368 C44.097485,3.68368 44.5394012,3.744104 44.9691018,3.864952 C45.3988024,3.9858 45.7803593,4.185636 46.1148503,4.463368 C46.4493413,4.741828 46.7177246,5.116748 46.9203593,5.588128 C47.1233533,6.059508 47.2250299,6.64664 47.2250299,7.348068 C47.2250299,7.601412 47.2099401,7.873684 47.1801198,8.163792 C47.1502994,8.4539 47.1057485,8.75602 47.0461078,9.07088 L41.6500599,9.07088 C41.685988,9.832732 41.9216766,10.40676 42.2726946,10.793692 C42.6233533,11.180988 43.1917365,11.373908 43.9764072,11.373908 C44.4635928,11.373908 44.894012,11.277812 45.2877844,11.1475 C45.7785629,10.985156 46.2405988,10.763844 46.2405988,10.763844 L46.9383234,12.22676 C46.5801198,12.516868 46.0936527,12.76184 45.4789222,12.961312 Z" id="Fill-5" fill="#FF4C00"></path>
                    <path d="M54.7907784,5.690048 C54.7907784,5.690048 54.0783234,5.543356 53.5171257,5.543356 C51.9194012,5.543356 50.8821557,6.4701 50.8821557,8.515416 C50.8821557,10.43406 51.6732934,11.381916 53.3417964,11.381916 C53.8857485,11.381916 54.9341317,11.234496 54.9341317,11.234496 L55.2549701,12.873588 C54.8166467,13.015184 53.9558084,13.229216 52.92,13.229216 C49.6720958,13.229216 48.4778443,10.827908 48.4778443,8.390928 C48.4778443,5.936476 49.8822754,3.730636 53.1132934,3.730636 C53.7100599,3.730636 54.4465868,3.801616 55.1320958,3.979612 L54.7907784,5.690048" id="Fill-6" fill="#FF4C00"></path>
                    <path d="M58.4676647,6.523244 C57.7376048,6.523244 57.1465868,5.924464 57.1465868,5.18518 C57.1465868,4.445896 57.7376048,3.846752 58.4676647,3.846752 C59.1966467,3.846752 59.7883832,4.445896 59.7883832,5.18518 C59.7883832,5.924464 59.1966467,6.523244 58.4676647,6.523244 Z" id="Fill-7" fill="#FF4C00"></path>
                    <path d="M59.7883832,11.803064 C59.7883832,12.541984 59.1966467,13.141128 58.4676647,13.141128 C57.7376048,13.141128 57.1465868,12.541984 57.1465868,11.803064 C57.1465868,11.063416 57.7376048,10.464272 58.4676647,10.464272 C59.1966467,10.464272 59.7883832,11.06378 59.7883832,11.803064" id="Fill-8" fill="#FF4C00"></path>
                </g>
            </g>
        </g>
    </g>
</svg>