<?xml version="1.0" encoding="UTF-8"?>
<svg width="15px" height="12px" viewBox="0 0 15 12" version="1.1" xmlns="http://www.w3.org/2000/svg" xmlns:xlink="http://www.w3.org/1999/xlink">
    <!-- Generator: sketchtool 48.1 (47250) - http://www.bohemiancoding.com/sketch -->
    <title>8EDE4DB2-F0A2-43B1-BE75-BCC9E58A20EB</title>
    <desc>Created with sketchtool.</desc>
    <defs>
        <polygon id="path-1" points="0 0 15 0 15 12 0 12"></polygon>
    </defs>
    <g id="icons" stroke="none" stroke-width="1" fill="none" fill-rule="evenodd" transform="translate(-100.000000, -517.000000)" opacity="0.699999988">
        <g id="Page-1-Copy-2" transform="translate(100.000000, 515.000000)">
            <rect id="Background" x="0" y="0" width="15" height="15"></rect>
            <g id="Page-1" transform="translate(0.000000, 2.000000)">
                <mask id="mask-2" fill="white">
                    <use xlink:href="#path-1"></use>
                </mask>
                <g id="Clip-2"></g>
                <path d="M9.44855686,6.54963264 L8.10141434,7.25996561 L13.265674,9.98342973 C13.4589458,10.0856652 13.6672569,10.1341254 13.8723681,10.1341254 C14.3277087,10.1341254 14.7683299,9.89620134 15,9.47725496 L9.44855686,6.54963264 Z M2.54741131,10.7494138 C1.84824114,10.7494138 1.27994539,10.1935282 1.27994539,9.51102079 C1.27994539,8.82820072 1.84824114,8.27262779 2.54741131,8.27262779 C3.24594151,8.27262779 3.81455725,8.82820072 3.81455725,9.51102079 C3.81455725,10.1935282 3.24594151,10.7494138 2.54741131,10.7494138 Z M2.54741131,3.72737221 C1.84824114,3.72737221 1.27994539,3.17179928 1.27994539,2.48897921 C1.27994539,1.80615914 1.84824114,1.25058621 2.54741131,1.25058621 C3.24594151,1.25058621 3.81455725,1.80615914 3.81455725,2.48897921 C3.81455725,3.17179928 3.24594151,3.72737221 2.54741131,3.72737221 Z M8.12413337,5.85086759 L14.7315315,2.36610911 C14.5001813,1.94716273 14.0595601,1.70923871 13.6042196,1.70923871 C13.3991083,1.70923871 13.1904772,1.75769892 12.9972055,1.8596217 L6.77667086,5.14022198 L4.58156452,3.98249179 C4.90219084,3.56635923 5.09450263,3.05017977 5.09450263,2.48897921 C5.09450263,1.11427232 3.95407129,0 2.54741131,0 C1.14043134,0 0,1.11427232 0,2.48897921 C0,3.8636861 1.14043134,4.97795842 2.54741131,4.97795842 C2.8686776,4.97795842 3.17490454,4.91730499 3.45809245,4.81100516 L5.42952834,5.85086759 L3.0961879,7.08144443 C2.91923545,7.04330155 2.73588327,7.02204158 2.54741131,7.02204158 C1.14043134,7.02204158 0,8.1363139 0,9.51102079 C0,10.885415 1.14043134,12 2.54741131,12 C3.95407129,12 5.09450263,10.885415 5.09450263,9.51102079 C5.09450263,8.85321244 4.83179384,8.25730811 4.40525204,7.81209942 L7.09825714,6.39174613 L8.12413337,5.85086759 Z" id="Fill-1" fill="#475677" mask="url(#mask-2)"></path>
            </g>
        </g>
    </g>
</svg>