<?xml version="1.0" encoding="UTF-8"?>
<svg width="15px" height="12px" viewBox="0 0 15 12" version="1.1" xmlns="http://www.w3.org/2000/svg" xmlns:xlink="http://www.w3.org/1999/xlink">
    <!-- Generator: sketchtool 48.1 (47250) - http://www.bohemiancoding.com/sketch -->
    <title>C3432FE1-2A42-44C6-A9F4-3699AE158C44</title>
    <desc>Created with sketchtool.</desc>
    <defs></defs>
    <g id="icons" stroke="none" stroke-width="1" fill="none" fill-rule="evenodd" transform="translate(-100.000000, -542.000000)">
        <g id="Page-1-Copy-18" transform="translate(100.000000, 540.000000)">
            <rect id="Background" x="0" y="0" width="15" height="15"></rect>
            <path d="M7.5,3.5 L7.5,3.71184104 C7.24930237,3.76146172 7.05954103,3.84925082 6.93071031,3.97521099 C6.74616899,4.16224276 6.58252161,4.44851158 6.43976323,4.83402604 L3.96935933,11.4411765 L3.77611421,11.4411765 L1.12291086,4.74814454 C0.987116313,4.4046168 0.891365181,4.19468633 0.835654596,4.11834683 C0.748606807,4.00002061 0.641539633,3.90746036 0.514449861,3.8406633 C0.387360089,3.77386624 0.215878517,3.73092592 0,3.71184104 L0,3.5 L2.89345404,3.5 L2.89345404,3.71184104 C2.56615435,3.74619382 2.35376093,3.8072645 2.25626741,3.89505492 C2.15877389,3.98284534 2.11002786,4.09544441 2.11002786,4.23285551 C2.11002786,4.42370425 2.19011062,4.72142382 2.35027855,5.12602316 L4.15215877,9.67774291 L5.82346797,5.18327749 C5.98711781,4.74050841 6.0689415,4.43324654 6.0689415,4.26148268 C6.0689415,4.1507904 6.01845454,4.04487094 5.91747911,3.94372111 C5.81650367,3.84257127 5.64589257,3.77100407 5.40564067,3.72901735 C5.38823111,3.72520037 5.35863531,3.71947499 5.31685237,3.71184104 L5.31685237,3.5 L7.5,3.5 Z" id="V" fill="#475677"></path>
            <path d="M12.296875,8.84182959 L9.5625,8.84182959 L9.08333333,10.0670724 C8.96527719,10.3686134 8.90625,10.5938115 8.90625,10.7426736 C8.90625,10.8609998 8.95746477,10.9650108 9.05989583,11.0547097 C9.1623269,11.1444086 9.38367885,11.2026166 9.72395833,11.2293354 L9.72395833,11.4411765 L7.5,11.4411765 L7.5,11.2293354 C7.79514036,11.1720808 7.98611068,11.0976509 8.07291667,11.0060435 C8.25000089,10.8228287 8.44617948,10.4506793 8.66145833,9.88958395 L11.1458333,3.5 L11.328125,3.5 L13.7864583,9.95828916 C13.984376,10.4773977 14.1640617,10.8142407 14.3255208,10.9688282 C14.48698,11.1234157 14.7118041,11.2102506 15,11.2293354 L15,11.4411765 L12.2135417,11.4411765 L12.2135417,11.2293354 C12.4947931,11.2140675 12.6848953,11.1625391 12.7838542,11.0747487 C12.882813,10.9869583 12.9322917,10.8800846 12.9322917,10.7541244 C12.9322917,10.5861775 12.8628479,10.3209018 12.7239583,9.95828916 L12.296875,8.84182959 Z M12.1510417,8.4181475 L10.953125,5.28060986 L9.72395833,8.4181475 L12.1510417,8.4181475 Z" id="A" fill="#475677"></path>
            <path d="M9.3639469,2 L5,13.0192571" id="Path-7" stroke="#475677" stroke-width="0.5" stroke-linecap="round"></path>
        </g>
    </g>
</svg>